<mxfile host="65bd71144e" modified="2021-03-05T08:56:54.184Z" agent="5.0 (X11; Linux x86_64) AppleWebKit/537.36 (KHTML, like Gecko) Code/1.53.2 Chrome/87.0.4280.141 Electron/11.2.1 Safari/537.36" etag="vcOh2Wfpk_DcIYygYHCz" version="14.2.4" type="embed" pages="3">
    <diagram id="HTxiJRCHUvkafheIfM6i" name="l7mp">
        <mxGraphModel dx="1106" dy="771" grid="1" gridSize="10" guides="1" tooltips="1" connect="1" arrows="1" fold="1" page="1" pageScale="1" pageWidth="850" pageHeight="1100" math="0" shadow="0">
            <root>
                <mxCell id="0"/>
                <mxCell id="1" parent="0"/>
                <mxCell id="JQAfcQFNn3J71cR9bUUl-145" value="" style="rounded=1;whiteSpace=wrap;html=1;" parent="1" vertex="1">
                    <mxGeometry x="10" y="580" width="290" height="160" as="geometry"/>
                </mxCell>
                <mxCell id="5" value="" style="group" parent="1" vertex="1" connectable="0">
                    <mxGeometry x="490" y="40" width="80" height="68" as="geometry"/>
                </mxCell>
                <mxCell id="2" value="" style="html=1;dashed=0;whitespace=wrap;fillColor=#2875E2;strokeColor=#ffffff;points=[[0.005,0.63,0],[0.1,0.2,0],[0.9,0.2,0],[0.5,0,0],[0.995,0.63,0],[0.72,0.99,0],[0.5,1,0],[0.28,0.99,0]];shape=mxgraph.kubernetes.icon;prIcon=ing" parent="5" vertex="1">
                    <mxGeometry x="15" width="50" height="48" as="geometry"/>
                </mxCell>
                <mxCell id="4" value="l7mp-ingress" style="text;html=1;align=center;verticalAlign=middle;resizable=0;points=[];autosize=1;" parent="5" vertex="1">
                    <mxGeometry y="48" width="80" height="20" as="geometry"/>
                </mxCell>
                <mxCell id="18" value="" style="group" parent="1" vertex="1" connectable="0">
                    <mxGeometry x="385" y="40" width="80" height="68" as="geometry"/>
                </mxCell>
                <mxCell id="16" value="" style="html=1;dashed=0;whitespace=wrap;fillColor=#2875E2;strokeColor=#ffffff;points=[[0.005,0.63,0],[0.1,0.2,0],[0.9,0.2,0],[0.5,0,0],[0.995,0.63,0],[0.72,0.99,0],[0.5,1,0],[0.28,0.99,0]];shape=mxgraph.kubernetes.icon;prIcon=svc" parent="18" vertex="1">
                    <mxGeometry x="15" width="50" height="48" as="geometry"/>
                </mxCell>
                <mxCell id="17" value="l7mp-worker" style="text;html=1;align=center;verticalAlign=middle;resizable=0;points=[];autosize=1;" parent="18" vertex="1">
                    <mxGeometry y="48" width="80" height="20" as="geometry"/>
                </mxCell>
                <mxCell id="29" value="Incoming rtp traffic and&amp;nbsp;&lt;br&gt;ng commands" style="text;html=1;align=center;verticalAlign=middle;resizable=0;points=[];autosize=1;" parent="1" vertex="1">
                    <mxGeometry x="600" y="59" width="140" height="30" as="geometry"/>
                </mxCell>
                <mxCell id="43" value="" style="group" parent="1" vertex="1" connectable="0">
                    <mxGeometry x="40" y="40" width="315" height="188" as="geometry"/>
                </mxCell>
                <mxCell id="6" value="" style="rounded=1;whiteSpace=wrap;html=1;" parent="43" vertex="1">
                    <mxGeometry width="310" height="188" as="geometry"/>
                </mxCell>
                <mxCell id="10" value="rtpengine" style="shape=cube;whiteSpace=wrap;html=1;boundedLbl=1;backgroundOutline=1;darkOpacity=0.05;darkOpacity2=0.1;" parent="43" vertex="1">
                    <mxGeometry x="110" y="128" width="90" height="50" as="geometry"/>
                </mxCell>
                <mxCell id="15" value="rtpe-operator" style="shape=cube;whiteSpace=wrap;html=1;boundedLbl=1;backgroundOutline=1;darkOpacity=0.05;darkOpacity2=0.1;" parent="43" vertex="1">
                    <mxGeometry x="110" y="70" width="90" height="50" as="geometry"/>
                </mxCell>
                <mxCell id="7" value="l7mp-sidecar" style="shape=cube;whiteSpace=wrap;html=1;boundedLbl=1;backgroundOutline=1;darkOpacity=0.05;darkOpacity2=0.1;" parent="43" vertex="1">
                    <mxGeometry x="110" y="10" width="90" height="50" as="geometry"/>
                </mxCell>
                <mxCell id="32" value="" style="endArrow=classic;html=1;entryX=0;entryY=0;entryDx=90;entryDy=20;entryPerimeter=0;exitX=0;exitY=0;exitDx=90;exitDy=35;exitPerimeter=0;edgeStyle=entityRelationEdgeStyle;" parent="43" source="7" target="15" edge="1">
                    <mxGeometry width="50" height="50" relative="1" as="geometry">
                        <mxPoint x="202" y="60" as="sourcePoint"/>
                        <mxPoint x="202" y="70" as="targetPoint"/>
                    </mxGeometry>
                </mxCell>
                <mxCell id="33" value="Receive ng&lt;br&gt;commands&lt;br&gt;on port&lt;br&gt;2000" style="text;html=1;align=center;verticalAlign=middle;resizable=0;points=[];autosize=1;" parent="43" vertex="1">
                    <mxGeometry x="230" y="40" width="80" height="60" as="geometry"/>
                </mxCell>
                <mxCell id="34" value="" style="endArrow=classic;html=1;exitX=0;exitY=0;exitDx=90;exitDy=35;exitPerimeter=0;entryX=0;entryY=0;entryDx=90;entryDy=20;entryPerimeter=0;edgeStyle=entityRelationEdgeStyle;" parent="43" source="15" target="10" edge="1">
                    <mxGeometry width="50" height="50" relative="1" as="geometry">
                        <mxPoint x="250" y="220" as="sourcePoint"/>
                        <mxPoint x="300" y="170" as="targetPoint"/>
                    </mxGeometry>
                </mxCell>
                <mxCell id="35" value="Send the&lt;br&gt;transformed&amp;nbsp;&lt;br&gt;commands to&lt;br&gt;port 22222" style="text;html=1;align=center;verticalAlign=middle;resizable=0;points=[];autosize=1;" parent="43" vertex="1">
                    <mxGeometry x="225" y="103" width="90" height="60" as="geometry"/>
                </mxCell>
                <mxCell id="36" value="" style="endArrow=classic;html=1;entryX=0;entryY=0;entryDx=0;entryDy=30;entryPerimeter=0;exitX=0;exitY=0;exitDx=0;exitDy=15;exitPerimeter=0;edgeStyle=orthogonalEdgeStyle;curved=1;" parent="43" source="10" target="15" edge="1">
                    <mxGeometry width="50" height="50" relative="1" as="geometry">
                        <mxPoint x="95" y="143" as="sourcePoint"/>
                        <mxPoint x="95" y="100" as="targetPoint"/>
                        <Array as="points">
                            <mxPoint x="90" y="143"/>
                            <mxPoint x="90" y="100"/>
                        </Array>
                    </mxGeometry>
                </mxCell>
                <mxCell id="38" value="Return with&lt;br&gt;remote ports" style="text;html=1;align=center;verticalAlign=middle;resizable=0;points=[];autosize=1;" parent="43" vertex="1">
                    <mxGeometry x="10" y="108" width="80" height="30" as="geometry"/>
                </mxCell>
                <mxCell id="39" value="" style="endArrow=classic;html=1;exitX=0;exitY=0;exitDx=0;exitDy=15;exitPerimeter=0;" parent="43" source="15" target="40" edge="1">
                    <mxGeometry width="50" height="50" relative="1" as="geometry">
                        <mxPoint x="60" y="268" as="sourcePoint"/>
                        <mxPoint x="10" y="238" as="targetPoint"/>
                    </mxGeometry>
                </mxCell>
                <mxCell id="40" value="Create Targets&lt;br&gt;and Vsvcs" style="text;html=1;align=center;verticalAlign=middle;resizable=0;points=[];autosize=1;" parent="43" vertex="1">
                    <mxGeometry y="70" width="90" height="30" as="geometry"/>
                </mxCell>
                <mxCell id="41" value="" style="endArrow=classic;html=1;entryX=0;entryY=0;entryDx=0;entryDy=30;entryPerimeter=0;exitX=0;exitY=0;exitDx=0;exitDy=0;exitPerimeter=0;edgeStyle=orthogonalEdgeStyle;curved=1;" parent="43" source="15" target="7" edge="1">
                    <mxGeometry width="50" height="50" relative="1" as="geometry">
                        <mxPoint x="100" y="288" as="sourcePoint"/>
                        <mxPoint x="150" y="238" as="targetPoint"/>
                        <Array as="points">
                            <mxPoint x="90" y="70"/>
                            <mxPoint x="90" y="40"/>
                        </Array>
                    </mxGeometry>
                </mxCell>
                <mxCell id="42" value="Send back&lt;br&gt;remote ports" style="text;html=1;align=center;verticalAlign=middle;resizable=0;points=[];autosize=1;" parent="43" vertex="1">
                    <mxGeometry x="5" y="38" width="80" height="30" as="geometry"/>
                </mxCell>
                <mxCell id="48" value="" style="html=1;dashed=0;whitespace=wrap;fillColor=#2875E2;strokeColor=#ffffff;points=[[0.005,0.63,0],[0.1,0.2,0],[0.9,0.2,0],[0.5,0,0],[0.995,0.63,0],[0.72,0.99,0],[0.5,1,0],[0.28,0.99,0]];shape=mxgraph.kubernetes.icon;prIcon=pod" parent="43" vertex="1">
                    <mxGeometry x="10" y="-10" width="30" height="30" as="geometry"/>
                </mxCell>
                <mxCell id="44" value="" style="endArrow=classic;startArrow=classic;html=1;entryX=0.005;entryY=0.63;entryDx=0;entryDy=0;entryPerimeter=0;exitX=1;exitY=0.25;exitDx=0;exitDy=0;" parent="1" source="6" target="16" edge="1">
                    <mxGeometry width="50" height="50" relative="1" as="geometry">
                        <mxPoint x="380" y="90" as="sourcePoint"/>
                        <mxPoint x="470" y="230" as="targetPoint"/>
                    </mxGeometry>
                </mxCell>
                <mxCell id="45" value="" style="endArrow=classic;startArrow=classic;html=1;entryX=0.005;entryY=0.63;entryDx=0;entryDy=0;entryPerimeter=0;exitX=0.995;exitY=0.63;exitDx=0;exitDy=0;exitPerimeter=0;" parent="1" source="16" target="2" edge="1">
                    <mxGeometry width="50" height="50" relative="1" as="geometry">
                        <mxPoint x="465" y="130" as="sourcePoint"/>
                        <mxPoint x="600" y="190" as="targetPoint"/>
                    </mxGeometry>
                </mxCell>
                <mxCell id="46" value="" style="endArrow=classic;html=1;entryX=0.995;entryY=0.63;entryDx=0;entryDy=0;entryPerimeter=0;" parent="1" target="2" edge="1">
                    <mxGeometry width="50" height="50" relative="1" as="geometry">
                        <mxPoint x="600" y="70" as="sourcePoint"/>
                        <mxPoint x="780" y="160" as="targetPoint"/>
                    </mxGeometry>
                </mxCell>
                <mxCell id="47" value="&lt;h1 style=&quot;font-size: 19px&quot;&gt;Note&lt;/h1&gt;&lt;p&gt;This scenario only describe the session creation. If the session is created the l7mp-worker will open the required ports and the traffic don't go throught the rtpe-operator at all.&amp;nbsp;&lt;/p&gt;" style="text;html=1;strokeColor=none;fillColor=none;spacing=5;spacingTop=-20;whiteSpace=wrap;overflow=hidden;rounded=0;" parent="1" vertex="1">
                    <mxGeometry x="360" y="126" width="370" height="102" as="geometry"/>
                </mxCell>
                <mxCell id="94" value="Kiszervezni az rtpe-operator.&amp;nbsp;" style="text;html=1;align=center;verticalAlign=middle;resizable=0;points=[];autosize=1;" parent="1" vertex="1">
                    <mxGeometry x="10" y="250" width="170" height="20" as="geometry"/>
                </mxCell>
                <mxCell id="JQAfcQFNn3J71cR9bUUl-117" value="" style="group" parent="1" vertex="1" connectable="0">
                    <mxGeometry x="160" y="598" width="110" height="120" as="geometry"/>
                </mxCell>
                <mxCell id="JQAfcQFNn3J71cR9bUUl-115" value="" style="rounded=1;whiteSpace=wrap;html=1;" parent="JQAfcQFNn3J71cR9bUUl-117" vertex="1">
                    <mxGeometry width="110" height="120" as="geometry"/>
                </mxCell>
                <mxCell id="JQAfcQFNn3J71cR9bUUl-112" value="rtpengine" style="shape=cube;whiteSpace=wrap;html=1;boundedLbl=1;backgroundOutline=1;darkOpacity=0.05;darkOpacity2=0.1;" parent="JQAfcQFNn3J71cR9bUUl-117" vertex="1">
                    <mxGeometry x="10" y="60" width="90" height="50" as="geometry"/>
                </mxCell>
                <mxCell id="JQAfcQFNn3J71cR9bUUl-111" value="l7mp-sidecar" style="shape=cube;whiteSpace=wrap;html=1;boundedLbl=1;backgroundOutline=1;darkOpacity=0.05;darkOpacity2=0.1;" parent="JQAfcQFNn3J71cR9bUUl-117" vertex="1">
                    <mxGeometry x="10" y="15" width="90" height="50" as="geometry"/>
                </mxCell>
                <mxCell id="JQAfcQFNn3J71cR9bUUl-118" value="" style="group" parent="1" vertex="1" connectable="0">
                    <mxGeometry x="40" y="600" width="110" height="118" as="geometry"/>
                </mxCell>
                <mxCell id="JQAfcQFNn3J71cR9bUUl-119" value="" style="rounded=1;whiteSpace=wrap;html=1;" parent="JQAfcQFNn3J71cR9bUUl-118" vertex="1">
                    <mxGeometry width="110" height="118" as="geometry"/>
                </mxCell>
                <mxCell id="JQAfcQFNn3J71cR9bUUl-120" value="rtpengine" style="shape=cube;whiteSpace=wrap;html=1;boundedLbl=1;backgroundOutline=1;darkOpacity=0.05;darkOpacity2=0.1;" parent="JQAfcQFNn3J71cR9bUUl-118" vertex="1">
                    <mxGeometry x="10" y="59" width="90" height="49.166666666666664" as="geometry"/>
                </mxCell>
                <mxCell id="JQAfcQFNn3J71cR9bUUl-121" value="l7mp-sidecar" style="shape=cube;whiteSpace=wrap;html=1;boundedLbl=1;backgroundOutline=1;darkOpacity=0.05;darkOpacity2=0.1;" parent="JQAfcQFNn3J71cR9bUUl-118" vertex="1">
                    <mxGeometry x="10" y="14.75" width="90" height="49.166666666666664" as="geometry"/>
                </mxCell>
                <mxCell id="JQAfcQFNn3J71cR9bUUl-124" value="" style="group" parent="1" vertex="1" connectable="0">
                    <mxGeometry x="130" y="780" width="50" height="68" as="geometry"/>
                </mxCell>
                <mxCell id="JQAfcQFNn3J71cR9bUUl-122" value="" style="html=1;dashed=0;whitespace=wrap;fillColor=#2875E2;strokeColor=#ffffff;points=[[0.005,0.63,0],[0.1,0.2,0],[0.9,0.2,0],[0.5,0,0],[0.995,0.63,0],[0.72,0.99,0],[0.5,1,0],[0.28,0.99,0]];shape=mxgraph.kubernetes.icon;prIcon=svc" parent="JQAfcQFNn3J71cR9bUUl-124" vertex="1">
                    <mxGeometry width="50" height="48" as="geometry"/>
                </mxCell>
                <mxCell id="JQAfcQFNn3J71cR9bUUl-123" value="Redis" style="text;html=1;align=center;verticalAlign=middle;resizable=0;points=[];autosize=1;" parent="JQAfcQFNn3J71cR9bUUl-124" vertex="1">
                    <mxGeometry y="48" width="50" height="20" as="geometry"/>
                </mxCell>
                <mxCell id="JQAfcQFNn3J71cR9bUUl-125" value="" style="endArrow=none;html=1;entryX=0.5;entryY=1;entryDx=0;entryDy=0;edgeStyle=orthogonalEdgeStyle;exitX=0.9;exitY=0.2;exitDx=0;exitDy=0;exitPerimeter=0;" parent="1" source="JQAfcQFNn3J71cR9bUUl-122" target="JQAfcQFNn3J71cR9bUUl-115" edge="1">
                    <mxGeometry width="50" height="50" relative="1" as="geometry">
                        <mxPoint x="100" y="478" as="sourcePoint"/>
                        <mxPoint x="150" y="428" as="targetPoint"/>
                        <Array as="points">
                            <mxPoint x="175" y="760"/>
                            <mxPoint x="215" y="760"/>
                        </Array>
                    </mxGeometry>
                </mxCell>
                <mxCell id="JQAfcQFNn3J71cR9bUUl-129" value="" style="group" parent="1" vertex="1" connectable="0">
                    <mxGeometry x="120" y="470" width="70" height="68" as="geometry"/>
                </mxCell>
                <mxCell id="JQAfcQFNn3J71cR9bUUl-127" value="" style="html=1;dashed=0;whitespace=wrap;fillColor=#2875E2;strokeColor=#ffffff;points=[[0.005,0.63,0],[0.1,0.2,0],[0.9,0.2,0],[0.5,0,0],[0.995,0.63,0],[0.72,0.99,0],[0.5,1,0],[0.28,0.99,0]];shape=mxgraph.kubernetes.icon;prIcon=svc" parent="JQAfcQFNn3J71cR9bUUl-129" vertex="1">
                    <mxGeometry x="10" width="50" height="48" as="geometry"/>
                </mxCell>
                <mxCell id="JQAfcQFNn3J71cR9bUUl-128" value="rtpengine" style="text;html=1;align=center;verticalAlign=middle;resizable=0;points=[];autosize=1;" parent="JQAfcQFNn3J71cR9bUUl-129" vertex="1">
                    <mxGeometry y="48" width="70" height="20" as="geometry"/>
                </mxCell>
                <mxCell id="JQAfcQFNn3J71cR9bUUl-134" value="" style="group" parent="1" vertex="1" connectable="0">
                    <mxGeometry x="225" y="360" width="80" height="68" as="geometry"/>
                </mxCell>
                <mxCell id="JQAfcQFNn3J71cR9bUUl-132" value="" style="html=1;dashed=0;whitespace=wrap;fillColor=#2875E2;strokeColor=#ffffff;points=[[0.005,0.63,0],[0.1,0.2,0],[0.9,0.2,0],[0.5,0,0],[0.995,0.63,0],[0.72,0.99,0],[0.5,1,0],[0.28,0.99,0]];shape=mxgraph.kubernetes.icon;prIcon=ing" parent="JQAfcQFNn3J71cR9bUUl-134" vertex="1">
                    <mxGeometry x="15" width="50" height="48" as="geometry"/>
                </mxCell>
                <mxCell id="JQAfcQFNn3J71cR9bUUl-133" value="l7mp-ingress" style="text;html=1;align=center;verticalAlign=middle;resizable=0;points=[];autosize=1;" parent="JQAfcQFNn3J71cR9bUUl-134" vertex="1">
                    <mxGeometry y="48" width="80" height="20" as="geometry"/>
                </mxCell>
                <mxCell id="JQAfcQFNn3J71cR9bUUl-135" value="" style="group" parent="1" vertex="1" connectable="0">
                    <mxGeometry x="340" y="600" width="110" height="120" as="geometry"/>
                </mxCell>
                <mxCell id="JQAfcQFNn3J71cR9bUUl-116" value="" style="rounded=1;whiteSpace=wrap;html=1;" parent="JQAfcQFNn3J71cR9bUUl-135" vertex="1">
                    <mxGeometry width="110" height="120" as="geometry"/>
                </mxCell>
                <mxCell id="JQAfcQFNn3J71cR9bUUl-113" value="rtpe-operator" style="shape=cube;whiteSpace=wrap;html=1;boundedLbl=1;backgroundOutline=1;darkOpacity=0.05;darkOpacity2=0.1;" parent="JQAfcQFNn3J71cR9bUUl-135" vertex="1">
                    <mxGeometry x="10" y="60" width="90" height="50" as="geometry"/>
                </mxCell>
                <mxCell id="JQAfcQFNn3J71cR9bUUl-114" value="l7mp-sidecar" style="shape=cube;whiteSpace=wrap;html=1;boundedLbl=1;backgroundOutline=1;darkOpacity=0.05;darkOpacity2=0.1;" parent="JQAfcQFNn3J71cR9bUUl-135" vertex="1">
                    <mxGeometry x="10" y="15" width="90" height="50" as="geometry"/>
                </mxCell>
                <mxCell id="JQAfcQFNn3J71cR9bUUl-126" value="" style="endArrow=none;html=1;entryX=0.5;entryY=1;entryDx=0;entryDy=0;edgeStyle=orthogonalEdgeStyle;exitX=0.1;exitY=0.2;exitDx=0;exitDy=0;exitPerimeter=0;" parent="1" source="JQAfcQFNn3J71cR9bUUl-122" target="JQAfcQFNn3J71cR9bUUl-119" edge="1">
                    <mxGeometry width="50" height="50" relative="1" as="geometry">
                        <mxPoint x="110" y="688" as="sourcePoint"/>
                        <mxPoint x="160" y="638" as="targetPoint"/>
                        <Array as="points">
                            <mxPoint x="135" y="760"/>
                            <mxPoint x="95" y="760"/>
                        </Array>
                    </mxGeometry>
                </mxCell>
                <mxCell id="JQAfcQFNn3J71cR9bUUl-137" value="" style="endArrow=none;html=1;exitX=0.5;exitY=0;exitDx=0;exitDy=0;edgeStyle=orthogonalEdgeStyle;" parent="1" source="JQAfcQFNn3J71cR9bUUl-119" target="JQAfcQFNn3J71cR9bUUl-128" edge="1">
                    <mxGeometry width="50" height="50" relative="1" as="geometry">
                        <mxPoint x="300" y="520" as="sourcePoint"/>
                        <mxPoint x="350" y="470" as="targetPoint"/>
                        <Array as="points">
                            <mxPoint x="95" y="570"/>
                            <mxPoint x="130" y="570"/>
                        </Array>
                    </mxGeometry>
                </mxCell>
                <mxCell id="JQAfcQFNn3J71cR9bUUl-138" value="" style="endArrow=none;html=1;exitX=0.5;exitY=0;exitDx=0;exitDy=0;edgeStyle=orthogonalEdgeStyle;" parent="1" source="JQAfcQFNn3J71cR9bUUl-115" target="JQAfcQFNn3J71cR9bUUl-128" edge="1">
                    <mxGeometry width="50" height="50" relative="1" as="geometry">
                        <mxPoint x="240" y="520" as="sourcePoint"/>
                        <mxPoint x="290" y="470" as="targetPoint"/>
                        <Array as="points">
                            <mxPoint x="215" y="570"/>
                            <mxPoint x="180" y="570"/>
                        </Array>
                    </mxGeometry>
                </mxCell>
                <mxCell id="JQAfcQFNn3J71cR9bUUl-141" value="" style="group" parent="1" vertex="1" connectable="0">
                    <mxGeometry x="355" y="470" width="80" height="68" as="geometry"/>
                </mxCell>
                <mxCell id="JQAfcQFNn3J71cR9bUUl-139" value="" style="html=1;dashed=0;whitespace=wrap;fillColor=#2875E2;strokeColor=#ffffff;points=[[0.005,0.63,0],[0.1,0.2,0],[0.9,0.2,0],[0.5,0,0],[0.995,0.63,0],[0.72,0.99,0],[0.5,1,0],[0.28,0.99,0]];shape=mxgraph.kubernetes.icon;prIcon=svc" parent="JQAfcQFNn3J71cR9bUUl-141" vertex="1">
                    <mxGeometry x="15" width="50" height="48" as="geometry"/>
                </mxCell>
                <mxCell id="JQAfcQFNn3J71cR9bUUl-140" value="rtpe-operator" style="text;html=1;align=center;verticalAlign=middle;resizable=0;points=[];autosize=1;" parent="JQAfcQFNn3J71cR9bUUl-141" vertex="1">
                    <mxGeometry y="48" width="80" height="20" as="geometry"/>
                </mxCell>
                <mxCell id="JQAfcQFNn3J71cR9bUUl-142" value="" style="endArrow=none;html=1;exitX=0.5;exitY=0;exitDx=0;exitDy=0;" parent="1" source="JQAfcQFNn3J71cR9bUUl-116" target="JQAfcQFNn3J71cR9bUUl-140" edge="1">
                    <mxGeometry width="50" height="50" relative="1" as="geometry">
                        <mxPoint x="450" y="600" as="sourcePoint"/>
                        <mxPoint x="500" y="550" as="targetPoint"/>
                    </mxGeometry>
                </mxCell>
                <mxCell id="JQAfcQFNn3J71cR9bUUl-143" value="" style="endArrow=none;html=1;exitX=0.5;exitY=0;exitDx=0;exitDy=0;exitPerimeter=0;edgeStyle=orthogonalEdgeStyle;" parent="1" source="JQAfcQFNn3J71cR9bUUl-127" target="JQAfcQFNn3J71cR9bUUl-133" edge="1">
                    <mxGeometry width="50" height="50" relative="1" as="geometry">
                        <mxPoint x="80" y="460" as="sourcePoint"/>
                        <mxPoint x="130" y="410" as="targetPoint"/>
                        <Array as="points">
                            <mxPoint x="155" y="444"/>
                            <mxPoint x="230" y="444"/>
                        </Array>
                    </mxGeometry>
                </mxCell>
                <mxCell id="JQAfcQFNn3J71cR9bUUl-144" value="" style="endArrow=none;html=1;exitX=0.5;exitY=0;exitDx=0;exitDy=0;exitPerimeter=0;edgeStyle=orthogonalEdgeStyle;" parent="1" source="JQAfcQFNn3J71cR9bUUl-139" target="JQAfcQFNn3J71cR9bUUl-133" edge="1">
                    <mxGeometry width="50" height="50" relative="1" as="geometry">
                        <mxPoint x="340" y="430" as="sourcePoint"/>
                        <mxPoint x="390" y="380" as="targetPoint"/>
                        <Array as="points">
                            <mxPoint x="395" y="444"/>
                            <mxPoint x="290" y="444"/>
                        </Array>
                    </mxGeometry>
                </mxCell>
                <mxCell id="JQAfcQFNn3J71cR9bUUl-146" value="StatefulSet" style="text;html=1;align=center;verticalAlign=middle;resizable=0;points=[];autosize=1;" parent="1" vertex="1">
                    <mxGeometry x="10" y="560" width="70" height="20" as="geometry"/>
                </mxCell>
                <mxCell id="95" value="Some idea, you should not use this" style="text;html=1;align=center;verticalAlign=middle;resizable=0;points=[];autosize=1;fontSize=14;" vertex="1" parent="1">
                    <mxGeometry x="445" y="330" width="230" height="20" as="geometry"/>
                </mxCell>
                <mxCell id="96" value="" style="endArrow=classic;html=1;fontSize=14;exitX=0.587;exitY=1;exitDx=0;exitDy=0;exitPerimeter=0;" edge="1" parent="1" source="95">
                    <mxGeometry width="50" height="50" relative="1" as="geometry">
                        <mxPoint x="630" y="500" as="sourcePoint"/>
                        <mxPoint x="390" y="410" as="targetPoint"/>
                    </mxGeometry>
                </mxCell>
            </root>
        </mxGraphModel>
    </diagram>
    <diagram id="NhVCoBGvpl4Guw-XiOdF" name="envoy">
        &#xa;
        <mxGraphModel dx="1157" dy="614" grid="1" gridSize="10" guides="1" tooltips="1" connect="1" arrows="1" fold="1" page="1" pageScale="1" pageWidth="850" pageHeight="1100" math="0" shadow="0">
            &#xa;
            <root>
                &#xa;
                <mxCell id="4iEnVPRdZ0do8g1SHi0h-0"/>
                &#xa;
                <mxCell id="4iEnVPRdZ0do8g1SHi0h-1" parent="4iEnVPRdZ0do8g1SHi0h-0"/>
                &#xa;
                <mxCell id="Y-EUFB_GkvsG34AQQW7M-0" value="" style="group" vertex="1" connectable="0" parent="4iEnVPRdZ0do8g1SHi0h-1">
                    &#xa;
                    <mxGeometry x="310" y="310" width="315" height="188" as="geometry"/>
                    &#xa;
                </mxCell>
                &#xa;
                <mxCell id="Y-EUFB_GkvsG34AQQW7M-1" value="" style="rounded=1;whiteSpace=wrap;html=1;" vertex="1" parent="Y-EUFB_GkvsG34AQQW7M-0">
                    &#xa;
                    <mxGeometry width="310" height="188" as="geometry"/>
                    &#xa;
                </mxCell>
                &#xa;
                <mxCell id="Y-EUFB_GkvsG34AQQW7M-2" value="rtpengine" style="shape=cube;whiteSpace=wrap;html=1;boundedLbl=1;backgroundOutline=1;darkOpacity=0.05;darkOpacity2=0.1;" vertex="1" parent="Y-EUFB_GkvsG34AQQW7M-0">
                    &#xa;
                    <mxGeometry x="110" y="128" width="90" height="50" as="geometry"/>
                    &#xa;
                </mxCell>
                &#xa;
                <mxCell id="Y-EUFB_GkvsG34AQQW7M-3" value="rtpe-operator" style="shape=cube;whiteSpace=wrap;html=1;boundedLbl=1;backgroundOutline=1;darkOpacity=0.05;darkOpacity2=0.1;" vertex="1" parent="Y-EUFB_GkvsG34AQQW7M-0">
                    &#xa;
                    <mxGeometry x="110" y="70" width="90" height="50" as="geometry"/>
                    &#xa;
                </mxCell>
                &#xa;
                <mxCell id="Y-EUFB_GkvsG34AQQW7M-4" value="envoy-sidecar" style="shape=cube;whiteSpace=wrap;html=1;boundedLbl=1;backgroundOutline=1;darkOpacity=0.05;darkOpacity2=0.1;" vertex="1" parent="Y-EUFB_GkvsG34AQQW7M-0">
                    &#xa;
                    <mxGeometry x="110" y="10" width="90" height="50" as="geometry"/>
                    &#xa;
                </mxCell>
                &#xa;
                <mxCell id="Y-EUFB_GkvsG34AQQW7M-5" value="" style="endArrow=classic;html=1;entryX=0;entryY=0;entryDx=90;entryDy=20;entryPerimeter=0;exitX=0;exitY=0;exitDx=90;exitDy=35;exitPerimeter=0;edgeStyle=entityRelationEdgeStyle;" edge="1" parent="Y-EUFB_GkvsG34AQQW7M-0" source="Y-EUFB_GkvsG34AQQW7M-4" target="Y-EUFB_GkvsG34AQQW7M-3">
                    &#xa;
                    <mxGeometry width="50" height="50" relative="1" as="geometry">
                        &#xa;
                        <mxPoint x="202" y="60" as="sourcePoint"/>
                        &#xa;
                        <mxPoint x="202" y="70" as="targetPoint"/>
                        &#xa;
                    </mxGeometry>
                    &#xa;
                </mxCell>
                &#xa;
                <mxCell id="Y-EUFB_GkvsG34AQQW7M-6" value="Receive ng&lt;br&gt;commands&lt;br&gt;on port&lt;br&gt;2000" style="text;html=1;align=center;verticalAlign=middle;resizable=0;points=[];autosize=1;" vertex="1" parent="Y-EUFB_GkvsG34AQQW7M-0">
                    &#xa;
                    <mxGeometry x="230" y="40" width="80" height="60" as="geometry"/>
                    &#xa;
                </mxCell>
                &#xa;
                <mxCell id="Y-EUFB_GkvsG34AQQW7M-7" value="" style="endArrow=classic;html=1;exitX=0;exitY=0;exitDx=90;exitDy=35;exitPerimeter=0;entryX=0;entryY=0;entryDx=90;entryDy=20;entryPerimeter=0;edgeStyle=entityRelationEdgeStyle;" edge="1" parent="Y-EUFB_GkvsG34AQQW7M-0" source="Y-EUFB_GkvsG34AQQW7M-3" target="Y-EUFB_GkvsG34AQQW7M-2">
                    &#xa;
                    <mxGeometry width="50" height="50" relative="1" as="geometry">
                        &#xa;
                        <mxPoint x="250" y="220" as="sourcePoint"/>
                        &#xa;
                        <mxPoint x="300" y="170" as="targetPoint"/>
                        &#xa;
                    </mxGeometry>
                    &#xa;
                </mxCell>
                &#xa;
                <mxCell id="Y-EUFB_GkvsG34AQQW7M-8" value="Send the&lt;br&gt;transformed&amp;nbsp;&lt;br&gt;commands to&lt;br&gt;port 22222" style="text;html=1;align=center;verticalAlign=middle;resizable=0;points=[];autosize=1;" vertex="1" parent="Y-EUFB_GkvsG34AQQW7M-0">
                    &#xa;
                    <mxGeometry x="225" y="103" width="90" height="60" as="geometry"/>
                    &#xa;
                </mxCell>
                &#xa;
                <mxCell id="Y-EUFB_GkvsG34AQQW7M-9" value="" style="endArrow=classic;html=1;entryX=0;entryY=0;entryDx=0;entryDy=30;entryPerimeter=0;exitX=0;exitY=0;exitDx=0;exitDy=15;exitPerimeter=0;edgeStyle=orthogonalEdgeStyle;curved=1;" edge="1" parent="Y-EUFB_GkvsG34AQQW7M-0" source="Y-EUFB_GkvsG34AQQW7M-2" target="Y-EUFB_GkvsG34AQQW7M-3">
                    &#xa;
                    <mxGeometry width="50" height="50" relative="1" as="geometry">
                        &#xa;
                        <mxPoint x="95" y="143" as="sourcePoint"/>
                        &#xa;
                        <mxPoint x="95" y="100" as="targetPoint"/>
                        &#xa;
                        <Array as="points">
                            &#xa;
                            <mxPoint x="90" y="143"/>
                            &#xa;
                            <mxPoint x="90" y="100"/>
                            &#xa;
                        </Array>
                        &#xa;
                    </mxGeometry>
                    &#xa;
                </mxCell>
                &#xa;
                <mxCell id="Y-EUFB_GkvsG34AQQW7M-10" value="Return with&lt;br&gt;remote ports" style="text;html=1;align=center;verticalAlign=middle;resizable=0;points=[];autosize=1;" vertex="1" parent="Y-EUFB_GkvsG34AQQW7M-0">
                    &#xa;
                    <mxGeometry x="10" y="108" width="80" height="30" as="geometry"/>
                    &#xa;
                </mxCell>
                &#xa;
                <mxCell id="Y-EUFB_GkvsG34AQQW7M-11" value="" style="endArrow=classic;html=1;entryX=0;entryY=0;entryDx=0;entryDy=30;entryPerimeter=0;exitX=0;exitY=0;exitDx=0;exitDy=0;exitPerimeter=0;edgeStyle=orthogonalEdgeStyle;curved=1;" edge="1" parent="Y-EUFB_GkvsG34AQQW7M-0" source="Y-EUFB_GkvsG34AQQW7M-3" target="Y-EUFB_GkvsG34AQQW7M-4">
                    &#xa;
                    <mxGeometry width="50" height="50" relative="1" as="geometry">
                        &#xa;
                        <mxPoint x="100" y="288" as="sourcePoint"/>
                        &#xa;
                        <mxPoint x="150" y="238" as="targetPoint"/>
                        &#xa;
                        <Array as="points">
                            &#xa;
                            <mxPoint x="90" y="70"/>
                            &#xa;
                            <mxPoint x="90" y="40"/>
                            &#xa;
                        </Array>
                        &#xa;
                    </mxGeometry>
                    &#xa;
                </mxCell>
                &#xa;
                <mxCell id="Y-EUFB_GkvsG34AQQW7M-12" value="Send back&lt;br&gt;remote ports" style="text;html=1;align=center;verticalAlign=middle;resizable=0;points=[];autosize=1;" vertex="1" parent="Y-EUFB_GkvsG34AQQW7M-0">
                    &#xa;
                    <mxGeometry x="5" y="38" width="80" height="30" as="geometry"/>
                    &#xa;
                </mxCell>
                &#xa;
                <mxCell id="Y-EUFB_GkvsG34AQQW7M-13" value="" style="html=1;dashed=0;whitespace=wrap;fillColor=#2875E2;strokeColor=#ffffff;points=[[0.005,0.63,0],[0.1,0.2,0],[0.9,0.2,0],[0.5,0,0],[0.995,0.63,0],[0.72,0.99,0],[0.5,1,0],[0.28,0.99,0]];shape=mxgraph.kubernetes.icon;prIcon=pod" vertex="1" parent="Y-EUFB_GkvsG34AQQW7M-0">
                    &#xa;
                    <mxGeometry x="10" y="-10" width="30" height="30" as="geometry"/>
                    &#xa;
                </mxCell>
                &#xa;
                <mxCell id="Y-EUFB_GkvsG34AQQW7M-14" value="" style="group" vertex="1" connectable="0" parent="4iEnVPRdZ0do8g1SHi0h-1">
                    &#xa;
                    <mxGeometry x="427.5" y="100" width="85" height="68" as="geometry"/>
                    &#xa;
                </mxCell>
                &#xa;
                <mxCell id="Y-EUFB_GkvsG34AQQW7M-15" value="" style="html=1;dashed=0;whitespace=wrap;fillColor=#2875E2;strokeColor=#ffffff;points=[[0.005,0.63,0],[0.1,0.2,0],[0.9,0.2,0],[0.5,0,0],[0.995,0.63,0],[0.72,0.99,0],[0.5,1,0],[0.28,0.99,0]];shape=mxgraph.kubernetes.icon;prIcon=ing" vertex="1" parent="Y-EUFB_GkvsG34AQQW7M-14">
                    &#xa;
                    <mxGeometry x="15" width="50" height="48" as="geometry"/>
                    &#xa;
                </mxCell>
                &#xa;
                <mxCell id="Y-EUFB_GkvsG34AQQW7M-16" value="envoy-ingress" style="text;html=1;align=center;verticalAlign=middle;resizable=0;points=[];autosize=1;" vertex="1" parent="Y-EUFB_GkvsG34AQQW7M-14">
                    &#xa;
                    <mxGeometry x="-5" y="48" width="90" height="20" as="geometry"/>
                    &#xa;
                </mxCell>
                &#xa;
                <mxCell id="Y-EUFB_GkvsG34AQQW7M-17" value="" style="group" vertex="1" connectable="0" parent="4iEnVPRdZ0do8g1SHi0h-1">
                    &#xa;
                    <mxGeometry x="427.5" y="200" width="80" height="68" as="geometry"/>
                    &#xa;
                </mxCell>
                &#xa;
                <mxCell id="Y-EUFB_GkvsG34AQQW7M-18" value="" style="html=1;dashed=0;whitespace=wrap;fillColor=#2875E2;strokeColor=#ffffff;points=[[0.005,0.63,0],[0.1,0.2,0],[0.9,0.2,0],[0.5,0,0],[0.995,0.63,0],[0.72,0.99,0],[0.5,1,0],[0.28,0.99,0]];shape=mxgraph.kubernetes.icon;prIcon=svc" vertex="1" parent="Y-EUFB_GkvsG34AQQW7M-17">
                    &#xa;
                    <mxGeometry x="15" width="50" height="48" as="geometry"/>
                    &#xa;
                </mxCell>
                &#xa;
                <mxCell id="Y-EUFB_GkvsG34AQQW7M-19" value="worker" style="text;html=1;align=center;verticalAlign=middle;resizable=0;points=[];autosize=1;" vertex="1" parent="Y-EUFB_GkvsG34AQQW7M-17">
                    &#xa;
                    <mxGeometry x="15" y="48" width="50" height="20" as="geometry"/>
                    &#xa;
                </mxCell>
                &#xa;
                <mxCell id="Y-EUFB_GkvsG34AQQW7M-20" value="Incoming rtp traffic and&amp;nbsp;&lt;br&gt;ng commands" style="text;html=1;align=center;verticalAlign=middle;resizable=0;points=[];autosize=1;" vertex="1" parent="4iEnVPRdZ0do8g1SHi0h-1">
                    &#xa;
                    <mxGeometry x="540" y="110" width="140" height="30" as="geometry"/>
                    &#xa;
                </mxCell>
                &#xa;
                <mxCell id="Y-EUFB_GkvsG34AQQW7M-21" value="" style="endArrow=classic;startArrow=classic;html=1;exitX=0.5;exitY=0;exitDx=0;exitDy=0;" edge="1" parent="4iEnVPRdZ0do8g1SHi0h-1" source="Y-EUFB_GkvsG34AQQW7M-1">
                    &#xa;
                    <mxGeometry width="50" height="50" relative="1" as="geometry">
                        &#xa;
                        <mxPoint x="365" y="60" as="sourcePoint"/>
                        &#xa;
                        <mxPoint x="465" y="270" as="targetPoint"/>
                        &#xa;
                    </mxGeometry>
                    &#xa;
                </mxCell>
                &#xa;
                <mxCell id="Y-EUFB_GkvsG34AQQW7M-22" value="" style="endArrow=classic;startArrow=classic;html=1;exitX=0.5;exitY=0;exitDx=0;exitDy=0;exitPerimeter=0;" edge="1" parent="4iEnVPRdZ0do8g1SHi0h-1" source="Y-EUFB_GkvsG34AQQW7M-18" target="Y-EUFB_GkvsG34AQQW7M-16">
                    &#xa;
                    <mxGeometry width="50" height="50" relative="1" as="geometry">
                        &#xa;
                        <mxPoint x="450" y="100" as="sourcePoint"/>
                        &#xa;
                        <mxPoint x="585" y="160" as="targetPoint"/>
                        &#xa;
                    </mxGeometry>
                    &#xa;
                </mxCell>
                &#xa;
                <mxCell id="Y-EUFB_GkvsG34AQQW7M-23" value="" style="group" vertex="1" connectable="0" parent="4iEnVPRdZ0do8g1SHi0h-1">
                    &#xa;
                    <mxGeometry x="240" y="210" width="100" height="68" as="geometry"/>
                    &#xa;
                </mxCell>
                &#xa;
                <mxCell id="Y-EUFB_GkvsG34AQQW7M-24" value="" style="html=1;dashed=0;whitespace=wrap;fillColor=#2875E2;strokeColor=#ffffff;points=[[0.005,0.63,0],[0.1,0.2,0],[0.9,0.2,0],[0.5,0,0],[0.995,0.63,0],[0.72,0.99,0],[0.5,1,0],[0.28,0.99,0]];shape=mxgraph.kubernetes.icon;prIcon=pod" vertex="1" parent="Y-EUFB_GkvsG34AQQW7M-23">
                    &#xa;
                    <mxGeometry x="15" width="50" height="48" as="geometry"/>
                    &#xa;
                </mxCell>
                &#xa;
                <mxCell id="Y-EUFB_GkvsG34AQQW7M-25" value="envoy-controlplane" style="text;html=1;align=center;verticalAlign=middle;resizable=0;points=[];autosize=1;" vertex="1" parent="Y-EUFB_GkvsG34AQQW7M-23">
                    &#xa;
                    <mxGeometry x="-20" y="48" width="120" height="20" as="geometry"/>
                    &#xa;
                </mxCell>
                &#xa;
                <mxCell id="Y-EUFB_GkvsG34AQQW7M-26" value="Ports&amp;nbsp; and&amp;nbsp;&lt;br&gt;adresses" style="text;html=1;align=center;verticalAlign=middle;resizable=0;points=[];autosize=1;" vertex="1" parent="4iEnVPRdZ0do8g1SHi0h-1">
                    &#xa;
                    <mxGeometry x="210" y="330" width="70" height="30" as="geometry"/>
                    &#xa;
                </mxCell>
                &#xa;
                <mxCell id="Y-EUFB_GkvsG34AQQW7M-27" value="" style="endArrow=classic;html=1;entryX=0.995;entryY=0.63;entryDx=0;entryDy=0;entryPerimeter=0;" edge="1" parent="4iEnVPRdZ0do8g1SHi0h-1" target="Y-EUFB_GkvsG34AQQW7M-15">
                    &#xa;
                    <mxGeometry width="50" height="50" relative="1" as="geometry">
                        &#xa;
                        <mxPoint x="560" y="130" as="sourcePoint"/>
                        &#xa;
                        <mxPoint x="640" y="160" as="targetPoint"/>
                        &#xa;
                    </mxGeometry>
                    &#xa;
                </mxCell>
                &#xa;
                <mxCell id="Y-EUFB_GkvsG34AQQW7M-28" value="" style="endArrow=classic;html=1;exitX=0;exitY=0;exitDx=0;exitDy=15;exitPerimeter=0;edgeStyle=orthogonalEdgeStyle;" edge="1" parent="4iEnVPRdZ0do8g1SHi0h-1" source="Y-EUFB_GkvsG34AQQW7M-3" target="Y-EUFB_GkvsG34AQQW7M-25">
                    &#xa;
                    <mxGeometry width="50" height="50" relative="1" as="geometry">
                        &#xa;
                        <mxPoint x="220" y="420" as="sourcePoint"/>
                        &#xa;
                        <mxPoint x="270" y="370" as="targetPoint"/>
                        &#xa;
                    </mxGeometry>
                    &#xa;
                </mxCell>
                &#xa;
                <mxCell id="Y-EUFB_GkvsG34AQQW7M-29" value="" style="endArrow=classic;html=1;exitX=0.995;exitY=0.63;exitDx=0;exitDy=0;exitPerimeter=0;edgeStyle=orthogonalEdgeStyle;" edge="1" parent="4iEnVPRdZ0do8g1SHi0h-1" source="Y-EUFB_GkvsG34AQQW7M-24" target="Y-EUFB_GkvsG34AQQW7M-4">
                    &#xa;
                    <mxGeometry width="50" height="50" relative="1" as="geometry">
                        &#xa;
                        <mxPoint x="350" y="260" as="sourcePoint"/>
                        &#xa;
                        <mxPoint x="410" y="280" as="targetPoint"/>
                        &#xa;
                        <Array as="points">
                            &#xa;
                            <mxPoint x="380" y="240"/>
                            &#xa;
                            <mxPoint x="380" y="280"/>
                            &#xa;
                            <mxPoint x="430" y="280"/>
                            &#xa;
                        </Array>
                        &#xa;
                    </mxGeometry>
                    &#xa;
                </mxCell>
                &#xa;
                <mxCell id="Y-EUFB_GkvsG34AQQW7M-30" value="" style="endArrow=classic;html=1;entryX=0.005;entryY=0.63;entryDx=0;entryDy=0;entryPerimeter=0;exitX=0.995;exitY=0.63;exitDx=0;exitDy=0;exitPerimeter=0;edgeStyle=orthogonalEdgeStyle;" edge="1" parent="4iEnVPRdZ0do8g1SHi0h-1" source="Y-EUFB_GkvsG34AQQW7M-24" target="Y-EUFB_GkvsG34AQQW7M-15">
                    &#xa;
                    <mxGeometry width="50" height="50" relative="1" as="geometry">
                        &#xa;
                        <mxPoint x="130" y="310" as="sourcePoint"/>
                        &#xa;
                        <mxPoint x="180" y="260" as="targetPoint"/>
                        &#xa;
                        <Array as="points">
                            &#xa;
                            <mxPoint x="380" y="240"/>
                            &#xa;
                            <mxPoint x="380" y="130"/>
                            &#xa;
                        </Array>
                        &#xa;
                    </mxGeometry>
                    &#xa;
                </mxCell>
                &#xa;
                <mxCell id="Y-EUFB_GkvsG34AQQW7M-31" value="&lt;font style=&quot;font-size: 11px&quot;&gt;Dynamic&lt;br&gt;configuration&lt;/font&gt;" style="text;html=1;align=center;verticalAlign=middle;resizable=0;points=[];autosize=1;" vertex="1" parent="4iEnVPRdZ0do8g1SHi0h-1">
                    &#xa;
                    <mxGeometry x="298" y="210" width="80" height="30" as="geometry"/>
                    &#xa;
                </mxCell>
                &#xa;
                <mxCell id="Y-EUFB_GkvsG34AQQW7M-32" value="remtoteA_rtp_port" style="text;html=1;align=center;verticalAlign=middle;resizable=0;points=[];autosize=1;" vertex="1" parent="4iEnVPRdZ0do8g1SHi0h-1">
                    &#xa;
                    <mxGeometry x="80" y="310" width="110" height="20" as="geometry"/>
                    &#xa;
                </mxCell>
                &#xa;
                <mxCell id="Y-EUFB_GkvsG34AQQW7M-33" value="remoteA_rtcp_port" style="text;html=1;align=center;verticalAlign=middle;resizable=0;points=[];autosize=1;" vertex="1" parent="4iEnVPRdZ0do8g1SHi0h-1">
                    &#xa;
                    <mxGeometry x="80" y="330" width="110" height="20" as="geometry"/>
                    &#xa;
                </mxCell>
                &#xa;
                <mxCell id="Y-EUFB_GkvsG34AQQW7M-34" value="remoteB_rtp_port" style="text;html=1;align=center;verticalAlign=middle;resizable=0;points=[];autosize=1;" vertex="1" parent="4iEnVPRdZ0do8g1SHi0h-1">
                    &#xa;
                    <mxGeometry x="80" y="350" width="110" height="20" as="geometry"/>
                    &#xa;
                </mxCell>
                &#xa;
                <mxCell id="Y-EUFB_GkvsG34AQQW7M-35" value="remoteB_rtcp_port" style="text;html=1;align=center;verticalAlign=middle;resizable=0;points=[];autosize=1;" vertex="1" parent="4iEnVPRdZ0do8g1SHi0h-1">
                    &#xa;
                    <mxGeometry x="80" y="370" width="110" height="20" as="geometry"/>
                    &#xa;
                </mxCell>
                &#xa;
                <mxCell id="Y-EUFB_GkvsG34AQQW7M-36" value="ingress_port?" style="text;html=1;align=center;verticalAlign=middle;resizable=0;points=[];autosize=1;" vertex="1" parent="4iEnVPRdZ0do8g1SHi0h-1">
                    &#xa;
                    <mxGeometry x="430" y="80" width="90" height="20" as="geometry"/>
                    &#xa;
                </mxCell>
                &#xa;
            </root>
            &#xa;
        </mxGraphModel>
        &#xa;
    </diagram>
    <diagram id="Vykh0-yOVdveX_PSzs8W" name="l7mp-sep">
        <mxGraphModel dx="632" dy="441" grid="1" gridSize="10" guides="1" tooltips="1" connect="1" arrows="1" fold="1" page="1" pageScale="1" pageWidth="850" pageHeight="1100" math="0" shadow="0">
            <root>
                <mxCell id="UZlF57VVFvJ6DMliWq4R-0"/>
                <mxCell id="UZlF57VVFvJ6DMliWq4R-1" parent="UZlF57VVFvJ6DMliWq4R-0"/>
                <mxCell id="V920K-Oazjh10rAW7AqZ-5" value="" style="group" vertex="1" connectable="0" parent="UZlF57VVFvJ6DMliWq4R-1">
                    <mxGeometry x="40" y="40" width="110" height="118" as="geometry"/>
                </mxCell>
                <mxCell id="V920K-Oazjh10rAW7AqZ-6" value="" style="rounded=1;whiteSpace=wrap;html=1;" vertex="1" parent="V920K-Oazjh10rAW7AqZ-5">
                    <mxGeometry width="110" height="118" as="geometry"/>
                </mxCell>
                <mxCell id="V920K-Oazjh10rAW7AqZ-7" value="rtpengine" style="shape=cube;whiteSpace=wrap;html=1;boundedLbl=1;backgroundOutline=1;darkOpacity=0.05;darkOpacity2=0.1;" vertex="1" parent="V920K-Oazjh10rAW7AqZ-5">
                    <mxGeometry x="10" y="59" width="90" height="49.166666666666664" as="geometry"/>
                </mxCell>
                <mxCell id="V920K-Oazjh10rAW7AqZ-8" value="l7mp-sidecar" style="shape=cube;whiteSpace=wrap;html=1;boundedLbl=1;backgroundOutline=1;darkOpacity=0.05;darkOpacity2=0.1;" vertex="1" parent="V920K-Oazjh10rAW7AqZ-5">
                    <mxGeometry x="10" y="14.75" width="90" height="49.166666666666664" as="geometry"/>
                </mxCell>
                <mxCell id="V920K-Oazjh10rAW7AqZ-13" value="" style="group" vertex="1" connectable="0" parent="UZlF57VVFvJ6DMliWq4R-1">
                    <mxGeometry x="207.5" y="65" width="70" height="68" as="geometry"/>
                </mxCell>
                <mxCell id="V920K-Oazjh10rAW7AqZ-14" value="" style="html=1;dashed=0;whitespace=wrap;fillColor=#2875E2;strokeColor=#ffffff;points=[[0.005,0.63,0],[0.1,0.2,0],[0.9,0.2,0],[0.5,0,0],[0.995,0.63,0],[0.72,0.99,0],[0.5,1,0],[0.28,0.99,0]];shape=mxgraph.kubernetes.icon;prIcon=svc" vertex="1" parent="V920K-Oazjh10rAW7AqZ-13">
                    <mxGeometry x="10" width="50" height="48" as="geometry"/>
                </mxCell>
                <mxCell id="V920K-Oazjh10rAW7AqZ-15" value="rtpengine" style="text;html=1;align=center;verticalAlign=middle;resizable=0;points=[];autosize=1;" vertex="1" parent="V920K-Oazjh10rAW7AqZ-13">
                    <mxGeometry y="48" width="70" height="20" as="geometry"/>
                </mxCell>
                <mxCell id="V920K-Oazjh10rAW7AqZ-16" value="" style="group" vertex="1" connectable="0" parent="UZlF57VVFvJ6DMliWq4R-1">
                    <mxGeometry x="345" y="150" width="80" height="68" as="geometry"/>
                </mxCell>
                <mxCell id="V920K-Oazjh10rAW7AqZ-17" value="" style="html=1;dashed=0;whitespace=wrap;fillColor=#2875E2;strokeColor=#ffffff;points=[[0.005,0.63,0],[0.1,0.2,0],[0.9,0.2,0],[0.5,0,0],[0.995,0.63,0],[0.72,0.99,0],[0.5,1,0],[0.28,0.99,0]];shape=mxgraph.kubernetes.icon;prIcon=ing" vertex="1" parent="V920K-Oazjh10rAW7AqZ-16">
                    <mxGeometry x="15" width="50" height="48" as="geometry"/>
                </mxCell>
                <mxCell id="V920K-Oazjh10rAW7AqZ-18" value="l7mp-ingress" style="text;html=1;align=center;verticalAlign=middle;resizable=0;points=[];autosize=1;" vertex="1" parent="V920K-Oazjh10rAW7AqZ-16">
                    <mxGeometry y="48" width="80" height="20" as="geometry"/>
                </mxCell>
                <mxCell id="V920K-Oazjh10rAW7AqZ-19" value="" style="group" vertex="1" connectable="0" parent="UZlF57VVFvJ6DMliWq4R-1">
                    <mxGeometry x="40" y="200" width="110" height="120" as="geometry"/>
                </mxCell>
                <mxCell id="V920K-Oazjh10rAW7AqZ-20" value="" style="rounded=1;whiteSpace=wrap;html=1;" vertex="1" parent="V920K-Oazjh10rAW7AqZ-19">
                    <mxGeometry width="110" height="120" as="geometry"/>
                </mxCell>
                <mxCell id="V920K-Oazjh10rAW7AqZ-21" value="rtpe-controller" style="shape=cube;whiteSpace=wrap;html=1;boundedLbl=1;backgroundOutline=1;darkOpacity=0.05;darkOpacity2=0.1;" vertex="1" parent="V920K-Oazjh10rAW7AqZ-19">
                    <mxGeometry x="10" y="60" width="90" height="50" as="geometry"/>
                </mxCell>
                <mxCell id="V920K-Oazjh10rAW7AqZ-22" value="l7mp-sidecar" style="shape=cube;whiteSpace=wrap;html=1;boundedLbl=1;backgroundOutline=1;darkOpacity=0.05;darkOpacity2=0.1;" vertex="1" parent="V920K-Oazjh10rAW7AqZ-19">
                    <mxGeometry x="10" y="15" width="90" height="50" as="geometry"/>
                </mxCell>
                <mxCell id="V920K-Oazjh10rAW7AqZ-24" value="" style="endArrow=none;html=1;exitX=1;exitY=0.5;exitDx=0;exitDy=0;edgeStyle=orthogonalEdgeStyle;entryX=0.071;entryY=0.715;entryDx=0;entryDy=0;entryPerimeter=0;" edge="1" parent="UZlF57VVFvJ6DMliWq4R-1" source="V920K-Oazjh10rAW7AqZ-6" target="V920K-Oazjh10rAW7AqZ-14">
                    <mxGeometry width="50" height="50" relative="1" as="geometry">
                        <mxPoint x="495" y="200" as="sourcePoint"/>
                        <mxPoint x="190" y="160" as="targetPoint"/>
                        <Array as="points">
                            <mxPoint x="221" y="99"/>
                        </Array>
                    </mxGeometry>
                </mxCell>
                <mxCell id="V920K-Oazjh10rAW7AqZ-26" value="" style="group" vertex="1" connectable="0" parent="UZlF57VVFvJ6DMliWq4R-1">
                    <mxGeometry x="200" y="226" width="85" height="68" as="geometry"/>
                </mxCell>
                <mxCell id="V920K-Oazjh10rAW7AqZ-27" value="" style="html=1;dashed=0;whitespace=wrap;fillColor=#2875E2;strokeColor=#ffffff;points=[[0.005,0.63,0],[0.1,0.2,0],[0.9,0.2,0],[0.5,0,0],[0.995,0.63,0],[0.72,0.99,0],[0.5,1,0],[0.28,0.99,0]];shape=mxgraph.kubernetes.icon;prIcon=svc" vertex="1" parent="V920K-Oazjh10rAW7AqZ-26">
                    <mxGeometry x="15" width="50" height="48" as="geometry"/>
                </mxCell>
                <mxCell id="V920K-Oazjh10rAW7AqZ-28" value="rtpe-controller" style="text;html=1;align=center;verticalAlign=middle;resizable=0;points=[];autosize=1;" vertex="1" parent="V920K-Oazjh10rAW7AqZ-26">
                    <mxGeometry x="-5" y="48" width="90" height="20" as="geometry"/>
                </mxCell>
                <mxCell id="V920K-Oazjh10rAW7AqZ-29" value="" style="endArrow=none;html=1;exitX=1;exitY=0.5;exitDx=0;exitDy=0;entryX=0.064;entryY=0.702;entryDx=0;entryDy=0;entryPerimeter=0;" edge="1" parent="UZlF57VVFvJ6DMliWq4R-1" source="V920K-Oazjh10rAW7AqZ-20" target="V920K-Oazjh10rAW7AqZ-27">
                    <mxGeometry width="50" height="50" relative="1" as="geometry">
                        <mxPoint x="645" y="280" as="sourcePoint"/>
                        <mxPoint x="695" y="230" as="targetPoint"/>
                    </mxGeometry>
                </mxCell>
                <mxCell id="V920K-Oazjh10rAW7AqZ-30" value="" style="endArrow=none;html=1;edgeStyle=orthogonalEdgeStyle;" edge="1" parent="UZlF57VVFvJ6DMliWq4R-1" source="V920K-Oazjh10rAW7AqZ-14">
                    <mxGeometry width="50" height="50" relative="1" as="geometry">
                        <mxPoint x="270" y="100" as="sourcePoint"/>
                        <mxPoint x="380" y="140" as="targetPoint"/>
                        <Array as="points">
                            <mxPoint x="380" y="100"/>
                            <mxPoint x="380" y="140"/>
                        </Array>
                    </mxGeometry>
                </mxCell>
                <mxCell id="V920K-Oazjh10rAW7AqZ-31" value="" style="endArrow=none;html=1;edgeStyle=orthogonalEdgeStyle;" edge="1" parent="UZlF57VVFvJ6DMliWq4R-1">
                    <mxGeometry width="50" height="50" relative="1" as="geometry">
                        <mxPoint x="270" y="260" as="sourcePoint"/>
                        <mxPoint x="380" y="220" as="targetPoint"/>
                        <Array as="points">
                            <mxPoint x="380" y="260"/>
                        </Array>
                    </mxGeometry>
                </mxCell>
            </root>
        </mxGraphModel>
    </diagram>
</mxfile>